<mxfile host="app.diagrams.net" agent="Mozilla/5.0 (Windows NT 10.0; Win64; x64) AppleWebKit/537.36 (KHTML, like Gecko) Chrome/135.0.0.0 Safari/537.36 Edg/135.0.0.0" version="26.2.12">
  <diagram name="第 1 页" id="o5mGRvW_vPiqVXhWnLXc">
    <mxGraphModel dx="1207" dy="807" grid="1" gridSize="10" guides="1" tooltips="1" connect="1" arrows="1" fold="1" page="1" pageScale="1" pageWidth="1169" pageHeight="1654" math="0" shadow="0">
      <root>
        <mxCell id="0" />
        <mxCell id="1" parent="0" />
        <mxCell id="mJ4tMJjO0BwHOsw6vvGb-1" value="" style="rounded=0;whiteSpace=wrap;html=1;fillColor=#dae8fc;strokeColor=#6c8ebf;dashed=1;dashPattern=8 8;" vertex="1" parent="1">
          <mxGeometry x="140" y="220" width="100" height="420" as="geometry" />
        </mxCell>
        <mxCell id="mJ4tMJjO0BwHOsw6vvGb-2" value="" style="rounded=0;whiteSpace=wrap;html=1;fillColor=#f9f7ed;strokeColor=#36393d;dashed=1;dashPattern=8 8;" vertex="1" parent="1">
          <mxGeometry x="250" y="220" width="100" height="420" as="geometry" />
        </mxCell>
        <mxCell id="mJ4tMJjO0BwHOsw6vvGb-6" value="" style="edgeStyle=orthogonalEdgeStyle;rounded=0;orthogonalLoop=1;jettySize=auto;html=1;" edge="1" parent="1" source="mJ4tMJjO0BwHOsw6vvGb-4" target="mJ4tMJjO0BwHOsw6vvGb-5">
          <mxGeometry relative="1" as="geometry" />
        </mxCell>
        <mxCell id="mJ4tMJjO0BwHOsw6vvGb-4" value="" style="shape=image;verticalLabelPosition=bottom;labelBackgroundColor=default;verticalAlign=top;aspect=fixed;imageAspect=0;image=data:image/png,iVBORw0KGgoAAAANSUhEUgAAAMgAAADICAYAAACtWK6eAAAAAXNSR0IArs4c6QAACXZJREFUeF7tnW1y1TgQRZWVDKwEWMnASiArmcxKgJXATph08VxFpSbJtT663a3jKoo//Sz5XB0kPRu/u8YBAQg8S+AONhCAwPMEEITRAYEXCCAIwwMCxQR5c7ue428CzkPg562rx9+X7/nVZ5CPrbV3rbX3rTWEuPxwOt3Bb4/Z2p/vrTWT5nLiXFEQE+HzIyyTg2MvAp9uwlxGlKsJ8g9i7GXE/1ytyXH/uGJ4uAKJKwny9baUugIX+hBPwGaTcEmuIIgtqWzmsH0GBwT+JBAuyRUEYeZAipcIvI3cvEcLYpvxL4wPCLxAwMaH7UlCjmhBfoVcNY1mIxA2i0QKwuyRbZjG9dc267YfcT8iBfnBzT/3vDM3GDKLRAli31yZIBwQUAmEfKMVJYjdJbevdjkgoBIIWWZFCcL+Qx0W1B0E7JmtD944ogTpvfdxyQfavENL3p4tr3sfPHUfr+4N3sLtFcT+BbF/STjyEhh53s59ox4lSO83WAiSV4yj5wgiZNh7gxBBBLgXL0EQISAEESAVLUEQIVgEESAVLRkRxH0FEbUHQZCio1+4LAQRICGIAKloCYIIwSKIAKloCYIIwSKIAKloCYIIwSKIAKloCYIIwSKIAKloCYIIwSKIAKloCYIIwSKIAKloCYIIwSKIAKloCYIIwSKIAKloCYIIwSKIAKloCYIIwSKIAKloCYIIwSKIAKloCYIIwSKIAKloCYIIwSKIAKloCYIIwSKIAKloCYIIwSKIAKloCYIIwSKIAKloCYIIwSKIAKloCYIIwSKIAKloCYIIwSKIAKloCYIIwSKIAKloCYIIwSKIAKloCYIIwSKIAKloCYIIwSKIAKloCYIIwSKIAKloCYIIwSKIAKloCYIIwSKIAKloCYIIwSKIAKloCYIIwSKIAKloCYIIwSKIAKloCYIIwSKIAKloCYIIwSKIAKloCYIIwSKIAKloCYIIwSKIAKloCYIIwSKIAKloCYIIwSKIAKloCYIIwSKIAKloCYIIwSKIAKloCYIIwSKIAKloCYIIwSKIAKloCYIIwSKIAKloCYIIwSKIAKloCYIIwSKIAKloCYIIwSKIAKloCYIIwSKIAKloCYIIwSKIAKloCYIIwSKIAKloCYIIwSKIAKloCYIIwSKIAKloCYIIwSKIAKloCYIIwSKIAKloCYIIwSKIAKloCYIIwSKIAKloCYIIwSKIAKloCYIIwSKIAKloCYIIwSKIAKloCYIIwSKIAKloCYIIwfYKIpzateSna2t5GnuJy/uBy/jQWvs28PnTH707/Yk5H6giyBwanEUlgCAqKeq2JIAgW8bORasEEEQlRd2WBBBky9i5aJUAgqikqNuSAIJsGTsXrRJAEJUUdVsSQJANYn9orX3vuM6/Hm+S2U22N7c/HadI/xEESR/h8xdgd5ffTrg+k8Qe1zBRdjsQpHDiX1pr95OuzyT5OulcmU6DIJnSOtnX2eHu+LjObIavRsizWK8imlbADDKOEkHGGV76DLYHGX0CeNfllQWLIJce3nM6Z99i/fvCqZ7bfB/fYo08Lj7nCuLOgiBx7Gk5AQEESRASXYwjgCBx7Gk5AQEESRASXYwjgCBx7Gk5AQEESRASXYwjgCBx7Gk5AQEESRASXYwjgCBx7Gk5AYFtBEmQBV2EQGtRDyvCHgIpCCBIipjoZBQBBIkiT7spCCBIipjoZBQBBIkiT7spCCBIipjoZBQBBIkiT7spCCBIipjoZBQBBIkiT7spCCBIipjoZBSBKwjy8fFNgfZCguOVmqNv/YhiSbtrCNh4sFe1uv424XEpkYKYEPYKzZ3f0rFmSNU868z3ismEogQxOX7IvaQQAr8JzHiv2CmWUYLYe2WZOU5FRfFtmfVpwsv3ZJgRgnx+7J1NlxwQ6CHgutTyFoSlVc+Q4DNPCbgttbwFYWnFYJ9BwG0W8RSEpdWMocE5DgIus4iXICytGNizCdh9keUbdi9BmD1mDw/OZwSWL7U8BGH2YDCvJLB0qeUhCBvzlcODcy+dRVYLsvOvITF0/Qgsm0VWCsLSym+A7N6SPdBoL5Wb/qDrSkHYmO8+bH2vf8lSa5UgzB6+g4PWfhOYvtRaJYg9qfvcj1ESJgRWEZg+i6wQhKXVqvg5r0Jg6guuZwvC0kqJkJqVBKZu2GcLwj2PldFzbpXAtKXWTEFYWqnxUedBYMqGfZYgLK08IqeNMwTsYUbbjwwdswRh9hiKgQ8vImBP+z6MnHuGIMweIwnw2ZUEhjfsMwRhY74yYs49SmBowz4qCA8jjsbH5z0IdG/YRwX55XF1tAGBQQLdG/YRQdiYD6bGx10JdC21egVhY+6aLY1NInB6qdUrCBvzSYlxGlcCp2eRHkFYWrlmSmOTCZx6mPGsICytJqfF6dwJnLo3clYQllbuedLgAgLyUuuMICytFiTFKUMIyLOIKsiMpZU9E2O/FDT9P9aHIKbRaALvbj+h0fszGtIsogoyMnuYGPbQGAcEVhCwn/Cz8dnzX7xf/dpXFcR+Ks06cvaw2cI6wQGBlQR6x+erT/uuFoTZY+Ww4NwHgd4VzjRBejvg8gZuxsn2BHq/XX11H6LOILa+s070rPNe7cT28QJghEDvP97S8l8VxC6gtyP2WZtJ7kco8FkIPCFg/1j/PfBjsNId9TOCWP94IRzjtAIB+fH3s4KMLLUqgOUa8hOQ5bBLPSuIfQZJ8g+SXa9A2nf8CadHECTZdXjlvu7TcvTOIAcmZpLcA2an3nfJMSrIAbj3LuZOAXGtcQRO7TmedrN3ifX0PPYVsD2K0nOfJA4dLVcnMHwPbpYgx77EZpPepyurh8X1+RGwR5zsvtvwk+MzBTku3wQ5buAwo/gNit1bOv47hS2phsU4YK4Q5M+gTBBPSTzb2n1AXuX6pwqxag9yFVj0AwJTCayeQaZ2lpNBwJsAgngTp71UBBAkVVx01psAgngTp71UBBAkVVx01psAgngTp71UBBAkVVx01psAgngTp71UBBAkVVx01psAgngTp71UBBAkVVx01psAgngTp71UBBAkVVx01psAgngTp71UBBAkVVx01psAgngTp71UBBAkVVx01psAgngTp71UBBAkVVx01psAgngTp71UBBAkVVx01psAgngTp71UBBAkVVx01psAgngTp71UBBAkVVx01psAgngTp71UBBAkVVx01psAgngTp71UBBAkVVx01psAgngTp71UBP4Dqwfk2AY1ErMAAAAASUVORK5CYII=;" vertex="1" parent="1">
          <mxGeometry x="150" y="390" width="80" height="80" as="geometry" />
        </mxCell>
        <mxCell id="mJ4tMJjO0BwHOsw6vvGb-5" value="" style="shape=image;verticalLabelPosition=bottom;labelBackgroundColor=default;verticalAlign=top;aspect=fixed;imageAspect=0;image=data:image/png,iVBORw0KGgoAAAANSUhEUgAAAMgAAADICAYAAACtWK6eAAAAAXNSR0IArs4c6QAADYJJREFUeF7tnVtyG7cShoEx8y5nBXLVkauyikgrsfSYw8oaZK0hxfiR8kpEryJVVqrCFRzz/dCDGMOLKN4ag2kADeDXo92DAf7ub4DuAQda4U+EAhef/rrUZjS1nTF6ebf47Ze5iI5V3gld+fiTD9+CodrRhx+O+PjSGTM3Sj8uxlcPyTtYeQcASMIAuJg8378GY78zACWhe7pbA5AEHuiWU+2bJ6X0pdvtzdy0+m7x+9XMzR5WXAoAEC4lHdqxYDTtT/dGmVsH8wMTrfRj2/z/AfmJj3p+1wAQP916X0Uvp1ybxLLLVSkOOwDCoeKZNi4mX2+10l11ivcPoPDqebw1ABJI5W3Z1qjrQLdYN4v8JKS+AIRZ3eNlW+abHGkO+UkYjQEIo658eYZvp7Ds8lXu1HUAhEHRiz+er3Vjpu5lW4abnm0CoHApDEAGKBkvz/DtpJmb5vsNysK++uFFoZdyqfIMr86q1WyimuVngNJfQcwgPTVLn2f07PDWHMsuH+UAiKNq8vIMx44fmFlQ1MNi/P7Rt4WargMghLfl5xl+4YqysJtuAOSETnnlGW7OPrTCsotSDoAcUSjfPINy96n/Byh4D+IQO/23oTs0mpUJtq3suwsziFJq6Db0rBhw6CzykxeRqgekvuWUAyGdCZZdVoVqAQm3Dd01AHOxqxuU6gAptWwbHrc685NqAKmjbBsek9rykyoAQZ7BDU49y66iASlnewh3gHO1Vz4oRQKCPIMLANd2yt1WXxQgyDNcAzqEXZmzSTGAIM8IEfQ+bZYFSvaAIM/wCeIY15RRFs4WEOQZMYJ8+D1yLwtnBwjyjOFBG7+FfJddWQGCPCN+aPPeMT9QsgAEyyneME3fWj75iWhAsA09fSiH7EEO+YlYQLCcChmaktqWvewSB8iqbKueJLkQfYmhgExQxACCPCNGEOZwD1n5SXJAULbNIWjj99HYQ00FfA0yKSDIM+IHXl53TL/sSgIItofkFabpe5vua5BRAUGekT7U8u5B/G31UQBBnpF3WMrqfdxlV3BAkGfICq9yehMHlGCAIM8oJxRljyRsWZgdEOQZssOp1N6F2rbCBgjyjFJDL6dx8S+7WABBnpFTENXQVz5QBgGC5VQNwZbzGIfnJ16AYDmVc9DU1/ch+YkXID9P/p4aZW7rkxojzlUBC8n/xv+569v/SgAxc62aWavMXLXqixot5/ZI5G4mtH/L0aVqzGWjml+Naq+V0qt/r/pvfXy01aBVXxa/X806vV5plc9DEoAcDWa/ZO1lCWkDoD5Y7E7axfjqgXo+5LTUBiD73tRq9u2/VzeUk8/9f04BMGSc22u1mhm9vLOza5/2cqhiApAdjxpl7jjPAa8ClIEPlNX5jqN/+oAV0xaArNX2FcLFWTk8KV3GcczGNMt3fWeO/XYkn9rlGxdlJekDn4IuwSU5CFz6fxSOVt3YJNz3+t3r3v75/KSMuuZoi7MNAGKPnWR09NncZPL1Vis95XRgsraYHypSl1oARCn1bXzlNSP6BGcpMwl3vma1lDiLVA+IrwA+cGyuKSEn4cg9DnOR5/sfT6qPQ7TlvtY3PryeuBLfpId4ElJOKuHLjyFmXYnfNgMgkfKPg6elLW+a0VRiYkoBrpjzj+3MKrDkC0ASAWKDYpWYvnnK7q07AHF4hpAmhwYil1gJAXmBRO6LsqNuBiBk9JeTgyQGpIMkt/IvAAEgpALMBllVtgAI6X3MIKRE/Q0kLkGxxKr89yCx3qK74JLNT5Exg5DuxAxCSuRnkEVlC4CQzgUgpET+BlL3JW1HBEBI5wIQUqJhBqIrWwCEdC4AISUabiC2sgVASOcCEFIiHgORkAAQ0rkAhJSIx0BkZQuAkM4FIKREfAbiKlsAhHQuACEl4jUQVdkCIKRzAQgpEb+BmMoWACGdC0BIicIYiEjaAQjpXABCShTOIDkkAIR0LgAhJQpnkLyyBUBI5wIQUqKwBkkrWwCEdC4AISUKb5CssgVASOcCEFKiOAZJKlsAhHQuACEksj9+8jl4hVT+iEH0pB2AkG4CIIRE3VcC7VcbBx6lQHpibRAVEgBCugWAuABi1LXroTKk4oRB1MoWACHdBUAcAbFmUSGJ8Z0tAAJASAV6AKLU8GOFXfsTpbIFQEh3YAbpBUg3j8xN8/1m6GEzpGdifGcLgJBuACC9AYkNScAvpQMQAEIq4AXICpJv4/fvhrbvcn2wyhYAIeXHDOINiFK+XwwnvbJnEKyyBUBIVwCQAYBkX9kCIACEVGAgIF3SrtQD57HTp7rEXtkCIGR4YAYZDMg6aW/1HddJsee6xHp6EwABIKQCLIBkWtkCIGR4YAZhAyTDyhYAASCkAqyAZFbZAiBkeGAGYQYkq8oWAAEgpAIBAIkPiefZiACEDA/MIIEAibqx8Y/na92o7ncrvf4ACCkXAAkGSOzK1tdbrfSU9PiuAQAh5QIgQQERXtkCIACEVCA4IIIrWwCEDA/MIBEAiZ+0v3lSSl86eH8W4rf27FtiyIHQBr4bSwFIJEDiQ+JQ2cIMQpIFQCICIq6yBUAACKlAVECEVbYACBkemEGiAyKosgVAAAipQBJAlC1tBUmQ94dz9teIgfqAJH3y99Qoczs0+DivN626CfF7jO7LikZdc/Z101by72wBENKtWGKlmkHW900KCQABIKQCiQGJWtn69NelbnfKvwCEDA/MIMkBSVjZAiAAhFRABCCxIVl/jA6AkOGBGUQMIPHKv9vKVqBjHVDFQhWLfPL4GvjuGep7PxvEqh19WIyvHvpeS9kDEABCxcig/49V2RrUyTMXAxAAEiq2NsXfaB+jCzEQAAJAQsTVXpvxziLhHgwAASDcMXWivXhnkXAOCIAAEM54ItqKd8wC16AACADhiiWndmJVtpw642AEQACIQ5jwmuRU2QIgAIQ3+h1bywUSAAJAHEOa2yyPyhYAASDckd+jPfmVLQACQHoEdAhT2ZUtAAJAQkR9rzYlV7YACADpFcyhjKUm7QAEgISK+d7tSoQEgACQ3oEc7gJ5lS0AAkDCxbtXy7IqWwAEgHiFcdiL5FS2AAgACRvrvq0H+o153+4AEADSN2ai2Uso/wIQABIt4H1ulLqyBUAAiE/cRrwmbWULgNQEyOTrP06nNUUMf7dbpatsARCJgCj1McQnbN5Onn+sWHL9SwMJABEISIjjBC58zx8XxVP88u/FxONI6sCa+RYvivmyov0I9Lfx+3ecOkt0tM/4fIPD5172mp8FPkB9NSgIEKW4zwgJeTaIb/D5XhezsiVxWQpAusjhm0XKWF69xikGJFIfKgBkHQu+Quw/md9mW706P8eEhETyQ8U3LopaYq1CY/g7AKlPQd/l1cF1Ws2MXt4tfvtlztWmZDjsGAHIK0+buVH6sW/Z9+yBl1yRJKadlUaqWX4eCsrFZH3eiJixHXYEgBx1jvt7AOlPwHCxZ+ZaNbO2NZ/7HoK6AsMe5qovw/WPp2UAclJHM1daz7XR81a1X1TzfWafmJvzMVbTbx5O5gmVc62sYbE6tbpbfm2g6fSyf+3ow0oz9TF8f/juAED4tERLBSoQFZDN0ze3p0iBfseQHBTwhWM9Uzrc4YRJXUmtv064MpUCwyuaXmXe/eGutmSo+xyStVSuwn1jKuBXxTzWQxZAbMNYdsUMANzrlALcL0LZANl0GKAgeJMoEODl5+Ac5JwQq98EvHnCsitJuFR00+F5xjmx2GeQ3ZthNqkoTqMPlS/PSAYIll3Ro6aKG3LnGckB2QVFm9FUGXVdhScxSF4FAuUZYgDZgoKyMG/gFN9a2DxDHCAoCxcf0UwDjJNniAQE+QlTDBXaTMw8QzQgyE8KjXDvYaVbTh3rctAyr49G2Lbio1oJ19jllHpYjN8/ShqNOECQn0gKjzh9kbKcymIG2e0kXjTGCdBkd0lQtu07VpEzyP4gsK2+r1ul28vKM7JI0imXvswm+HkspZXc/09ftu2rTRYzCJZdfd0qz15ynlHEDHJs2dW0P92b7oML+BOrQAZ5RpGAbAaFbfVS0cgnzygaEJSFpQGSX55RPCC7s4n9bhO+tpIGmlzzjGoAebXswrb6eJRknmdUB8gWFGyrDwxJGXlGtYAgPwnHR4nLqWNqZfcexNfl2Lbiq9zr62oBYzPqagBBfjIUkPKXU1XPIAcvGpGfOBJTVtnWcdBbs+pmkF2BsOw6Hy61Lacwg5yIB4CyJ0zBZVvMIH0V2LHHtvo684yqy7x9ealzW33deQYA6UtJRV+rR55xPjiqTtJduLEzSpHb6pFnuLjfnsWIPxcFVqfgmmn+X6tHnuHi72pfFPYR5+DdiT3pNdvdwsgzfHyPGcRDtdzKwsgzPJy8vgSA+GvXHTsn+2v1Zm6a7zf2XPgBw6z6UgDC4H55X4OU+ZVCBqmjNwFAmCSXsuzCcorJoVhi8Qq5aS0VKAAjjD8xg4TRNWJ+grJtIBd2zQKQkOraN/LBttWjbBvYdQAkhsD2HtzLLiynYnkOM0g8pTlAwfaQqP7CEiu63Ksb9n9/gjwjkauQg6QS3m1bPfKMVP7Z3BdJemIPnMpPkGckdgzeg8hwwO77k25bvTaXRi/vsD1Ehn/+BQEu7H0rGh89AAAAAElFTkSuQmCC;" vertex="1" parent="1">
          <mxGeometry x="270" y="400" width="60" height="60" as="geometry" />
        </mxCell>
        <mxCell id="mJ4tMJjO0BwHOsw6vvGb-7" value="" style="rounded=0;whiteSpace=wrap;html=1;fillColor=#D5E8D4;strokeColor=#36393d;dashed=1;dashPattern=8 8;" vertex="1" parent="1">
          <mxGeometry x="360" y="220" width="610" height="420" as="geometry" />
        </mxCell>
        <mxCell id="mJ4tMJjO0BwHOsw6vvGb-9" value="" style="shape=image;verticalLabelPosition=bottom;labelBackgroundColor=default;verticalAlign=top;aspect=fixed;imageAspect=0;image=data:image/png,iVBORw0KGgoAAAANSUhEUgAAAMgAAADICAYAAACtWK6eAAAAAXNSR0IArs4c6QAADwlJREFUeF7tXTuPHUsR7oboEpNjS0RkZETYTohnjDZD8m6IiEgISLwbkBIh0vWFfGck/wDvioiMjIDA64iEn7BXB9e6R3f2+JwzVTNd/apvJXSNTk9P9Vf1TT365R3+gAAQOIqABzb5Eei67lmQYvov/d/7cRzv80tnWwIQJJH+Awne0Ou89y9nhJiT4pA0E0nud7sd/fsukOc2keimXwOCKKp/IoX3/tw5t0QEqSREGCLJt+M4gixS9JjtQRAmUNxmXdeRd3jhvb/kPhOh3USWu3Ec30XoD10EBECQSKbQdd1bJU8hlZDI8m4cxyvpg2j/NQIgyEarII/hvb9WCKE2SuZAlK0IUr4YoQ+TXVB+EYgxJdyl4gCibNAMCCIELyTeUzglfDprcyLKBRJ6mQ5AEAFeIZz6IHiktKbwJkKNgCBMwEISnrIyxZRM3my3210iiefhBoIwcOq67jpUqBitWU1uw6TfNAlIk3+Owp+9WfVp7uQF/R5ZBvImrzBbf1pfIMgJfCIm4o+hjXPu05Z5ikAeIg3Ns1BxYGuBACRZ+J6BIEcACuT4yPIHRxpRKENLQ7QS40gz9chLTigZBDkAzlZypI7xZ0RZnSOFChdm4ffsAQQ5QJC+76lStSZ8odyCSqlZVuFuJArKwAdsAQTZA2UlOYoyrg1EQU4CD3I84FxZrbodhuHVllxF69mVpen7YRiea8lUW7/wIEFjayYBU+caa4xrDUnCYseLNe9r7RkQxDm3khw0h1DFPoxQdKC8ir0npQbypyAjCOKc6/t+JwC7qHyDK/cKklQ5Ti4e3HbmCSLNO8LscxWeY98IVpCk2PyKa+Bb25kmiHS+o2ZyTIZiccxbSGKaIJKSbksxedd152EvC8d2TFe1zBJEmJg3F2pIqluWZ9nNEkTgPZr8ggoXYjaJAcd9miSIxHu0/PWU5CMt43CKKCYJIvAezYVWBypb3L0uJr2IVYKw5j1aqFothRFCL1LN5OjSuLm/myOIoILTvPeYlX7pEArOUnkzmEzYmCMIN7yy4D1WzI2YC7MsEmQxvLK4WI9b9rX04aAPiCmCcMMrixUbbi7S0oQpJw+xRhBWxWa32z3PtSuQozStNszw01SYZYogzFW75hLRWS7C/YCYqWaZIYggvDJ7qBp3AtVSmAWC7MUrVsMrggF5yNfBqyWCsGr9wzCYweRQLsPMQ8yEoWaMgbkxylQCeoggTJxAEK1KSa5+OYq3OP9xYG0Wx9Oa+ZCY8SCc0AEEecxDOJupQJBcX3qt9/Z9T+fsnjzVw1J15hjO3EqWlVzNkgfhLDGhY0NNn0/LJYiVah8IMvuUWlxicuTkk8VT7a2syTJBEEF938wM8YkQiy4nBUECQCDIUw8Cgny5vRcEAUG+/oZaCRtOFULgbZ+iAw8CD/LEIkAQEOToBxQeRLQey0Q4Cg8CDwIPciLmBEFAEBAEBEFlhrtCATkIchDkICfYAoKAICAICMJ1qDZONcFXkW0Pkl2FqGLxYS27JQjC1w+wQoiFEAshFvuLgTIvyrwo86LMizIv95OJEAshFkIshFjc7wWqWHOksBYLa7H2mYMcBDkIchDkIMhBuDEFchDkIMhBkINwvxfIQZCDPLUVeBB4EHgQeBB4kH0EOHeDWDnrack6gNX3CJmoYtFwGUePmjlOk0GQD865lyfamcHKDEGWYmvMgXxPB2Bl0IPQkIPi6es4P6P3PpyoeLv0ZbX0O7D6om0zHmQyblJ8+DeFEPfjOIIYR5gPrAwSxJIXwFi3I2DOg2yHDD1YQgAEsaRtjFWMAAgihgwPWEIABLGkbYxVjECxBJlVUKjqdPLqNPGo8UBJCNyHaiL9t7i/YggSCPHGe39ZHEoQKBUCNCdFZfe7Uq7Cy0oQkCKV3VX5noksV+M4ZvMu2QjSdR3nPu4qNQuhoyJARKGLVb/NQZTkBDmyhCEqouisSQQeiTKO41XK0SUlCPeK4ZQA4F1VIZCcJMkI0nXduff+uip1QNgiEdjtdpepPEkSgsBzFGlnVQuViiTqBAE5qrbDooVPQRJ1gnC2bxatBQhXMgLqe3lUCdJ13bX3/lyI8OPM6mzCCPs1hADW0jzMg00rJV547+nfp7b6Hhqa6vZfNYIsbds8NNIULrMW47Eq55r5Mc3t0moEYRySMLcBdVdp1eBqHHf4uFLFk+tN1LyIJkF2TOXcDsPwitkWzYwgEMIvWm3BCtG1vIgKQSRzHloDM2JHTQ9TuOpC5UOrQhBueIWco2n7jjI4wTSBSpilRRBOeKXC+ChaQSdFIcCthmpEI9EJwmU8vEdRNli0MDltSoMgrDVX4bA2WsaMPyBwEgHulIHGRzcnQZ7nWN8PW6wTgb7vPy5tvQ7L4S9ijlCDIKyNUMMwRH93TGDQV1kIMAs/0fPa6EbKTKiiD6QsdUKa2AjksisQJLYm0Z8KAiCICqzotBUEQJBWNIlxqCAAgqjAik5bQQAEaUWTGIcKAiCICqzotBUEQJBWNLlyHPOziHHr1dcggiArDavGx2ZHrtKGoGOHc0/HbWL78Zf7JTnbt6PPr2EeJBHDZqSgDUBrT6ufyELHcJraqw+CJDLU1K/ROqA7nFeb9WDnlFiCICnRTvSuNQcQCEXLerCzUNZNzUGQTfCV9fCKQwe2DoCI8qrl1dEgyFYTKeR57t4FBXGTH+ysMIajXYIgKdFWehd355vS6x+71dg0pCkvt28QhItUoe1KIMcETYskAUEKNXyOWBnDqmPiNXcQHwjCscRC2zB3ux2Sfn4O8Sc6kzj8b35eLevgtAOdN5W4gyCFGv+SWCtLuWS8NIexeGjFtAQlXD7EPYpzEjv6zPISHlq/gyBayCr2uya02pIfhBMr30pm4jXOilKEFFWsgEATXzbmV21SepS8QHgcJ71b5cTB1CRhYh3drrAWa6WmhVWrqEYqnYhs4QwyEGSloeZ6jKmwaW6CZrmjLi4UepKoBM2BORNveJAcyjn0Ts5BZvSc5tdbkgPVnouAIKVYPkMOwfUO0b9o++IxDaf6GXbmOKPjjRyEQYgNRhk9tDogyzPvPR3LufQX3XiWXhjzdxAkJprKfXHDq1THqzInKqvOQ0AQZaOO2T3namuNg5SPjYEb8tWch4AgMS1YuS8mQS44M+UxROUm6yCIHG3kIELMBMaY9HqH0kgrhHWxOTzIIkRlNOBOEO52u9QE4dyfcTmO41UZSMqkAEFkeGVrzSVIqgR9AoJTONiyDiwb4OHFIEhuDTDfzyVI6ngfIdajAqOXspGDMIkxNRPkIOpzIHPRQRAQRGjKes2Zxpgs3heUeZPmRTE1gBArJprKfXHifQ13f2IehHMsJy03AUGEtoEQSwgYNWfOXCczSCZhXerCwQpojz4CDxITTeW+BIn6u3Eco15LvD80QXilLosm7CCIJrqR++Ym6rSbLyx3j7oXZC85X5z/oPapq2qRIcfp7rEB1e6PG2ZpbnkVyFB1eEW6hAfRtujI/XNDm/D1jh7e5H5/ZDgXuwNBFiEqq8GKfeHRyr4ScgSCVlu9mrQOgpRl/yxpuMn6rLPNM73Sc7hqXl4yVwIIwjLJ8hpJ8oAg/apT2AMZryVnYtH7ai7tgiDl2btYIkFFa7/vxevUtl7bVnvlCgQRm2OZD0hzggOjoDN5f+Sc+84590Pn3A+ccz/eMtpWQivkIFusoKBnpbmBsuibcx1l+cTdIwcRQ1bWA1qXda4YZdWHMxwbLwiywhJKe6QAkjTnORBilWblEeTJEW6lPEUlAkTiLuBBxJCV/YDw7Nwtg2HfNbLlJbmfBUFya0Dh/dohV2uVqlMqAEEUDLSULhWIchtWCVN52MQfCGJAzYEodP/gG++95O7BaVLxvtZje7aqFwTZimCFz/d9/3fn3G8m0T+HTI//9P7JRs9/D8PwswqHF1VkECQqnHV09vr167/udrvfnpLWe//Pm5ubX9QxIj0pQRA9bIvtGQThqwYE4WPVTEsQhK9KEISPVTMtQRC+KkEQPlbNtARB+KoEQfhYNdMSBOGrEgThY9VMSxCEr0oQhI9VMy1BEL4qQRA+Vs20BEH4qgRB+Fg10xIE4asSBOFj1UxLEISvShCEj1UzLUEQvipBED5WzbQEQfiqBEH4WDXTkkOQz+c2/2sYhp83M+iVAwFBVgJX82N93//eOffnhTH8bRiGNzWPM4bsIEgMFCvr4+zs7KcPDw//WRD718Mw3FQ2tOjigiDRIa2jw77v/+Kc+90Raf8xDMMv6xiJrpQgiC6+Rffe9/2fnHN/3BPy+uHh4Q/v37//X9HCJxIOBEkEdKmvOTs7++bh4eFXzrlvvPd3Nzc3/y1V1hxygSA5UMc7q0EABKlGVRA0BwIgSA7U8c5qEABBqlEVBM2BAAiSA3W8sxoEQJBqVAVBcyAAguRAHe+sBoGWCPL289GZlwvIN3kLUjXWVqGg1gjSzPXEFdpalSL3ff9x6QpsjUuEnpySHAM57o2vLV1RHAM39HEagb7vv5zsfeKvFoK89N5/YAzm0upR/kvY4PenCAg+uhfjOL6LiZ+GB3nmvSd3uPTX7IWTSwPH7zIEuHc+hkuFyiYIDb3ve/IgL5dg0BjQ0jvxe10IhLseOR9clbw2ugch+LmMd87RzUmvxnE0c5VYXeaZX1rBx/bdOI4XsSXWIgg3zHIaiVVskNBfHgQEH1qyo+j5B41ahSCSMCtAb+5SyjwmV89bJeSgUQ3DoGLLKp2GMItVzZqpjMItcpNX9agRksZGYM398lreQ9WDrPAij1gTSSg3cc7djeN4G1sB6K8sBMLNvyQUndxCobnk9l96TnVVhpoHCV6EnYucUBsS+LJsOrY0dC326j/tCWdVggSSnHvvr1cjgAeBwBEEPl+brT7ZrE6QQBLOAkYYAhCQIJBkojkJQUASid7RloGAat4xf38ygoAkDLWjCQeBJJ5jEiQpQZCTcPSPNscQSJFz7L87OUGm6haV9Rgbq2AtQIAQoDkymilPXvbPQpBJ52FSiCpciwsbYScmESBiXMVewi5BMitB5kQhknxeJk+TRSCLRIPttX1cUVHKRHERBJnrOMys0uTRNIH0k/ZsACPaQ+AThVE5QqglTRRHkCWB8TsQSInA/wFCwK9u71tAdQAAAABJRU5ErkJggg==;" vertex="1" parent="1">
          <mxGeometry x="380" y="395" width="70" height="70" as="geometry" />
        </mxCell>
        <mxCell id="mJ4tMJjO0BwHOsw6vvGb-10" value="" style="edgeStyle=orthogonalEdgeStyle;rounded=0;orthogonalLoop=1;jettySize=auto;html=1;" edge="1" parent="1" source="mJ4tMJjO0BwHOsw6vvGb-5" target="mJ4tMJjO0BwHOsw6vvGb-9">
          <mxGeometry relative="1" as="geometry" />
        </mxCell>
        <mxCell id="mJ4tMJjO0BwHOsw6vvGb-38" value="" style="edgeStyle=orthogonalEdgeStyle;rounded=0;orthogonalLoop=1;jettySize=auto;html=1;" edge="1" parent="1" source="mJ4tMJjO0BwHOsw6vvGb-11" target="mJ4tMJjO0BwHOsw6vvGb-37">
          <mxGeometry relative="1" as="geometry" />
        </mxCell>
        <mxCell id="mJ4tMJjO0BwHOsw6vvGb-11" value="" style="rounded=1;whiteSpace=wrap;html=1;fillColor=#eeeeee;strokeColor=#36393d;dashed=1;dashPattern=8 8;" vertex="1" parent="1">
          <mxGeometry x="480" y="330" width="350" height="245" as="geometry" />
        </mxCell>
        <mxCell id="mJ4tMJjO0BwHOsw6vvGb-14" value="" style="group" vertex="1" connectable="0" parent="1">
          <mxGeometry x="515" y="230" width="60" height="70" as="geometry" />
        </mxCell>
        <mxCell id="mJ4tMJjO0BwHOsw6vvGb-12" value="" style="shape=image;verticalLabelPosition=bottom;labelBackgroundColor=default;verticalAlign=top;aspect=fixed;imageAspect=0;image=data:image/png,iVBORw0KGgoAAAANSUhEUgAAAMgAAADICAYAAACtWK6eAAAAAXNSR0IArs4c6QAADvtJREFUeF7tXV1y2zgTlGT7HF/ylio7Z0h8krVPkvVJkpwkzhkiVeVtvfewrE/jJW2GpiTMoAECmE7VPmSDgTA905gfgORywT9EgAgcRGBJbIgAETiMAAlC7yACRxAgQegeRIAEoQ8QARsCjCA23CjlBAESxImhqaYNARLEhhulnCBAgjgxNNW0IUCC2HCjlBMESBAnhqaaNgRIEBtulHKCAAnixNBU04YACWLDjVJOECBBnBiaatoQIEFsuFHKCQIkiBNDU00bAiSIDTdKOUGABHFiaKppQ4AEseFGKScIkCBODE01bQiQIDbcKOUEARLEiaGppg0BEsSGG6WcIECCODE01bQhQILYcKOUEwRIECeGppo2BEgQG26UcoIACeLE0FTThgAJYsONUk4QIEGcGJpq2hAgQWy4UcoJAiSIE0NTTRsCJIgNN5PU1dXV591u95dJuBNarVY/f/369S1mDsqGI0CChGMVPfLy8vKf5XL5Lmai3W73sNls3sfMQdlwBEiQcKyiRn78+PFmt9t9jZrkVfh6vV7fg+biNEcQIEEyucfV1dWPxWLxGfRz9+v1+ho0F6chQeb3gaurqx1qFZJmLZfLW0YRFKKH52EESY/x4vLy8utyubxB/tRut/u22WxukXNyrrcIkCAJveLDhw/vzs/PpWv1N/pnJIrsU7b75XL5nZEEje7rfCQIGNueFHsHvontWIUurUu5vj0+Pn7//fu3EId/QAiQICAgU0aL0CX2RFmv13ehMhx3HAESBOAh+wL8S4o0yro0EsWKHGsQHHKLxaKLGnK2gWrfQtcnRNlut9dMu+ywMoIYsQMf/BlXcVqM0eQ0RsdGkCAG/MCHfoYVmET+Zm2ix40EUWJWKTmeteQ9LqWxF4sFCTLCTFKn3pmG5wul1xuhph/XJaKXyF5cXDzXUbwp/CeSJMgAD7mOvlgs5M7Uy58uh3/Yn1y/y3WuEers1nG9TgeaC7wIOQCWBPmTIMgLhVb/nVWOaRgjyKQD5uxK9Z0lWcj+0uG/8vfHx8cHacf2Kc/5+flLxHp6evoku33GCMaCvvMSRpAOCORt2ykGDkjx03p3anBaL6lgsrMXnp+8WpAEWSyS3LbtIU51NT1104C3hf+zoHuCTBXmiCJAiLFare5Sd4W61FBuDKeIKO4LdhIE+6Rfz62sOXyqi5Is2J1HkESF+Wy7bopoKE8upo6CiIidag7XEQTxlpHUtYbW8BJNzs7OfqA6Xt6jiFuCIB+DLc2JEpDE7eO9LgnS5ez/aHfnI+NnS6sOrQmpY6pOHBD/ZFO5JAj4wmFx5Oi9BVxjuXzVkDuCgAvZrN0qyzYJftqx2M3Agk2IjDuCAAvzKnZU5IFiabVWiIPHjnFHEGDaUc1uCoya1egcS4xe3h1BRHFA2lFF9Bg6CaDuKj6dRJFiOI9LggDSjup20sgoUt2GgCKLS4IIeBFnBdU6izGKVKsvgiRuCSLgGQv2JKlGF9WeH3+1Xoc/5RCW1HL/ogfXPuJaeQtB9q/3fI96z1QXxb5Mvdi6f/fudru9Q/7e/l3BwQekHrtW403GNUEsD0mhdtTQ3Rz9XitDmlVdvXUqkmr+3S1BLO1e1ENElt9G3ao13EEjQTSMamXsXE5qvSOFegw2NHIN7Jyk5qrFjxhBFJZC7OKGHfxlhYgIpm33In5TAXFxQ90SxLCTivGi0w1LY6D3GkTRTILoOEiCKPBCdLAsjYHhEmObBNoUjxFE4SAtDbVEkFjntNQ9E5hHRTESROfFjCAKvGIJok1vDiwtiiDdXbTgL+4ygigcpKWhlggSm2Jpd+8pvHOvgQRpyesVulgIMneR3l1DiYr62ihGgiicqqWhxnogOr2Zu82r1ZsEacnrFbpod9Ju6uhDs5g0Kza9Eh1IEIWTeH71qMVRUbup1knFpIhDSplHG8FQOuvcspzRUflsOWrYVqK9uIc4qOtXGloDoS8rag8qUcS0WWh+Ke8EefNFqQCTRNch/W/079Tdk+Bm/CbE/rr7ZrO5DVhT0BBL5EKkdUGLK3RQEQQRw3UfiTHDZHEk41OF0XXIlJKlPjBlJYikcmZjLhaL1Wr1s4R3AhdBkNB04xjgFkNqUyz5fWSaFeNAFlltemVtK1vqu7E+pdQ+zRBEe0ZhIcfAiLA0y+LoFhlL1876ylHLb03olCRSa7ErgiCW3HhC0WCnBUSs6l5kYN0QLM+hIOxZSnOgCIIgdpxQQBG/1ZEzmJDaXQs9PtZhtWll7O+J/qH2RGM1nq8ZguwVCwrJljx8yghap0ltyGPzW6PHaM7gqAmI0PLTRWxARRAEUdSFEgQYQcSIQaScmRxfZJ2INYQWztrDyKm1WZouCB2LjCAggmh2uB+Ij17m+lCn1fDgzUCWEYQxCWK12BG52CftQo0nSwAR8lkbSxGbAL43UyJ17CcP3dURKV3sszcojItIsUSZWIJoawJQnvxCks1m8x5llNh5AO8enlpCcDqJqPNIkJEJELuOprAznqIf9N1SIglarz5KajaA3Jtd7IZyTL6kCIKoC4J3OQEF0Y4cgou+WKg1fIKao19CcEcJgWloM0CLj2V8SQSxXBwc6xxURA6FQJHrZcq5SIJMGUegqjBFFOilnIEIDsUQBFFUausQdME+jiar1eou9YU7iRq73e4r6rvoE7tscPRA1JIyR2gzwBIRtDLFEEQWjijuNHVIDxZi1zsEvPU+0ylDJirE//hZbaqDSK9kAaUU6EVFkG73yV6HpIwiU/XJnsA/rd//OPb8yClCWf5d66iIjUZLSoteGpmiIggij7akWSkK9mNG6B+GkmceZJz8/fHx8UG+AyIkkP93fn7+TtKmffr0v24uyGl4qHNY6gBQBqBqtITqYx1XFEEQdYg1h82RsliNNIOcqjDv1xfb3n1OaZbL29R1mwbPogiCKvKsYXqqTdrVEA/7OZ93dA24FY9VFead3SB3vrRpXWqMSyRIdB1iTbP6VKtPe4a1QooDuNTGPTL/fUf8m/GYiM0l+HWmx9a1Xq+vZ8TlzU8XRxBUJyRFqD72TcGSjHpiLS/p0+A5+E/d5c3PlhYrymZWcqbEvjiCoOqQmChyDPC+k7Qfk7VoRjhBKgcEFedFnX/0eBdHEFkYol2YuuBDdNwQTq+YI0l3qOXo8exDCoCzDS09ivRA1ND5SnVQ2WOAih4pUmKEwxZJkK4rEl2sp44iMn/uwzuN0VOlVP0aUNFD5iute1V0itV3k+SOkcYhpsamqkXGv1VSbZI6aqCjR2oix/hQsREElWYJODkNMCCK3E6W/7L9yfkIMLIGs3TOcoFaLEGQxXoHpvrwK9YIGaPK/XK5/J7rBBr53EnOzctiz6IJAo4iD9vt9lruO1mAipFB7rajdSTpTB3TFWmTHDVijN2e1xc7QWp58ANNpjtGsTqinWpOxwLbo9jivPgivV9gAufKvuuKLi04VoJImD3t1W52xUeQzrkgF+G6gv1Beu7WZzK0APfjkXn7HGcGyPV3mMwSzbX2q4Ig6IuCuVq/Y2OgosgcZwaoA8EBJsVHjypqkB5Q5KFUH0lyF+2IDwVJtypn9EtxW6D0ztVwY6siggzSFMjpej9fKe+y0ob9XONTkEPWPkcEtGJWFUESFOzFvjrUalCUXCpyzFE/xWBSFUFEUdRN3yFojCR/ulAqcmjenxzj1EjZ6giSIorMVZMgDYmaKyE5ZIlVFObV1iApWqaMJK8IpNp8ul+Y5fwpduOoLoIMSAI7GxmTZP9yhm/7QvIuFtya5BMcAg7Vr+LMY8pe1RIkVT3ircOVOKWq+rPZ4gtVEySHcVuOJuizpQMRs7q6o/oaZKhA4rz5+afkYGu73d7NcRM4RZqWemMZrLlqclQfQVIX7S3WJpmihkBXZVE+3pCqTrGGyiQuMl9+aq7vf8RGEsFnv/abTG+HrLYob5YgolguknRpl9wKLrrblfGJxiY6Vs11saYUykmSIVH2z1V/L6VGmYkYAkczkaP3rWZSrDnSrXGNIg4inzSQNCznjVtZx5wvi+hwaI4czRTpJUSS8RqG3wBJ8TIFIcTFxYV8fk2+HzLra1Brur6ureWajCCD7laS03YtyH0qhvhmYdeF+iv3K4UO6dwyOZqOIL1BM7Y1T/IG4UwpbjOfXPjhAU20co/p33QEGUQSxCemI/zoP9GWCFLbcx1W47kgSF/Enp2d/ch0DjBpjxYIkuu1plaHRsu5Icio0zNLUdsAQZrsVLlPscYAoN+SErpr1UoQb1FjaE9XEWSo+ByHaZUSxF3UIEEGCOQ8ea+QIM13qU5Ff7cRZCKayLdIkn6uoBaC8CUWr95BggyYkvo5idIJ4rnWOBRJSJAJZFIRpVSCkBiHEy0S5EgSiiZKaQQhMU5VIJU/k35aPcwIFFFKIQiJEe4XjCDhWMkDWTvF8DdDSyFITe/GjcEbIUuCKFAkQRRgNTKUBFEYkgRRgNXIUBJEYUgSRAFWI0NJEIUhSRAFWI0MJUEUhiRBFGA1MpQEURiSBFGA1chQEkRhSBJEAVYjQ0kQhSFJEAVYjQwlQRSGJEEUYDUylARRGJIEUYDVyFASRGFIEkQBViNDSRCFIUkQBViNDCVBFIYkQRRgNTKUBFEYkgRRgNXIUBJEYUgSRAFWI0NJEIUhSRAFWI0MJUEUhiRBFGA1MpQEURiSBFGA1chQEkRhSBJEAVYjQ0kQhSFJEAVYjQwlQRSGlI/XKIa/GSrfL4z9HJt8EOjp6elTzDo2m81tjLwnWRLEk7WpqxoBEkQNGQU8IUCCeLI2dVUjQIKoIaOAJwRIEE/Wpq5qBEgQNWQU8IQACeLJ2tRVjQAJooaMAp4QIEE8WZu6qhEgQdSQUcATAiSIJ2tTVzUCJIgaMgp4QoAE8WRt6qpGgARRQ0YBTwiQIJ6sTV3VCJAgasgo4AkBEsSTtamrGgESRA0ZBTwhQIJ4sjZ1VSNAgqgho4AnBEgQT9amrmoESBA1ZBTwhAAJ4sna1FWNAAmihowCnhAgQTxZm7qqESBB1JBRwBMCJIgna1NXNQIkiBoyCnhCgATxZG3qqkaABFFDRgFPCJAgnqxNXdUIkCBqyCjgCQESxJO1qasagf8D1HlpUKnflrkAAAAASUVORK5CYII=;" vertex="1" parent="mJ4tMJjO0BwHOsw6vvGb-14">
          <mxGeometry x="5" width="50" height="50" as="geometry" />
        </mxCell>
        <mxCell id="mJ4tMJjO0BwHOsw6vvGb-13" value="字典管理" style="text;html=1;align=center;verticalAlign=middle;whiteSpace=wrap;rounded=0;" vertex="1" parent="mJ4tMJjO0BwHOsw6vvGb-14">
          <mxGeometry y="40" width="60" height="30" as="geometry" />
        </mxCell>
        <mxCell id="mJ4tMJjO0BwHOsw6vvGb-15" value="" style="group" vertex="1" connectable="0" parent="1">
          <mxGeometry x="618" y="230" width="80" height="70" as="geometry" />
        </mxCell>
        <mxCell id="mJ4tMJjO0BwHOsw6vvGb-16" value="" style="shape=image;verticalLabelPosition=bottom;labelBackgroundColor=default;verticalAlign=top;aspect=fixed;imageAspect=0;image=data:image/png,iVBORw0KGgoAAAANSUhEUgAAAMgAAADICAYAAACtWK6eAAAAAXNSR0IArs4c6QAADvtJREFUeF7tXV1y2zgTlGT7HF/ylio7Z0h8krVPkvVJkpwkzhkiVeVtvfewrE/jJW2GpiTMoAECmE7VPmSDgTA905gfgORywT9EgAgcRGBJbIgAETiMAAlC7yACRxAgQegeRIAEoQ8QARsCjCA23CjlBAESxImhqaYNARLEhhulnCBAgjgxNNW0IUCC2HCjlBMESBAnhqaaNgRIEBtulHKCAAnixNBU04YACWLDjVJOECBBnBiaatoQIEFsuFHKCQIkiBNDU00bAiSIDTdKOUGABHFiaKppQ4AEseFGKScIkCBODE01bQiQIDbcKOUEARLEiaGppg0BEsSGG6WcIECCODE01bQhQILYcKOUEwRIECeGppo2BEgQG26UcoIACeLE0FTThgAJYsONUk4QIEGcGJpq2hAgQWy4UcoJAiSIE0NTTRsCJIgNN5PU1dXV591u95dJuBNarVY/f/369S1mDsqGI0CChGMVPfLy8vKf5XL5Lmai3W73sNls3sfMQdlwBEiQcKyiRn78+PFmt9t9jZrkVfh6vV7fg+biNEcQIEEyucfV1dWPxWLxGfRz9+v1+ho0F6chQeb3gaurqx1qFZJmLZfLW0YRFKKH52EESY/x4vLy8utyubxB/tRut/u22WxukXNyrrcIkCAJveLDhw/vzs/PpWv1N/pnJIrsU7b75XL5nZEEje7rfCQIGNueFHsHvontWIUurUu5vj0+Pn7//fu3EId/QAiQICAgU0aL0CX2RFmv13ehMhx3HAESBOAh+wL8S4o0yro0EsWKHGsQHHKLxaKLGnK2gWrfQtcnRNlut9dMu+ywMoIYsQMf/BlXcVqM0eQ0RsdGkCAG/MCHfoYVmET+Zm2ix40EUWJWKTmeteQ9LqWxF4sFCTLCTFKn3pmG5wul1xuhph/XJaKXyF5cXDzXUbwp/CeSJMgAD7mOvlgs5M7Uy58uh3/Yn1y/y3WuEers1nG9TgeaC7wIOQCWBPmTIMgLhVb/nVWOaRgjyKQD5uxK9Z0lWcj+0uG/8vfHx8cHacf2Kc/5+flLxHp6evoku33GCMaCvvMSRpAOCORt2ykGDkjx03p3anBaL6lgsrMXnp+8WpAEWSyS3LbtIU51NT1104C3hf+zoHuCTBXmiCJAiLFare5Sd4W61FBuDKeIKO4LdhIE+6Rfz62sOXyqi5Is2J1HkESF+Wy7bopoKE8upo6CiIidag7XEQTxlpHUtYbW8BJNzs7OfqA6Xt6jiFuCIB+DLc2JEpDE7eO9LgnS5ez/aHfnI+NnS6sOrQmpY6pOHBD/ZFO5JAj4wmFx5Oi9BVxjuXzVkDuCgAvZrN0qyzYJftqx2M3Agk2IjDuCAAvzKnZU5IFiabVWiIPHjnFHEGDaUc1uCoya1egcS4xe3h1BRHFA2lFF9Bg6CaDuKj6dRJFiOI9LggDSjup20sgoUt2GgCKLS4IIeBFnBdU6izGKVKsvgiRuCSLgGQv2JKlGF9WeH3+1Xoc/5RCW1HL/ogfXPuJaeQtB9q/3fI96z1QXxb5Mvdi6f/fudru9Q/7e/l3BwQekHrtW403GNUEsD0mhdtTQ3Rz9XitDmlVdvXUqkmr+3S1BLO1e1ENElt9G3ao13EEjQTSMamXsXE5qvSOFegw2NHIN7Jyk5qrFjxhBFJZC7OKGHfxlhYgIpm33In5TAXFxQ90SxLCTivGi0w1LY6D3GkTRTILoOEiCKPBCdLAsjYHhEmObBNoUjxFE4SAtDbVEkFjntNQ9E5hHRTESROfFjCAKvGIJok1vDiwtiiDdXbTgL+4ygigcpKWhlggSm2Jpd+8pvHOvgQRpyesVulgIMneR3l1DiYr62ihGgiicqqWhxnogOr2Zu82r1ZsEacnrFbpod9Ju6uhDs5g0Kza9Eh1IEIWTeH71qMVRUbup1knFpIhDSplHG8FQOuvcspzRUflsOWrYVqK9uIc4qOtXGloDoS8rag8qUcS0WWh+Ke8EefNFqQCTRNch/W/079Tdk+Bm/CbE/rr7ZrO5DVhT0BBL5EKkdUGLK3RQEQQRw3UfiTHDZHEk41OF0XXIlJKlPjBlJYikcmZjLhaL1Wr1s4R3AhdBkNB04xjgFkNqUyz5fWSaFeNAFlltemVtK1vqu7E+pdQ+zRBEe0ZhIcfAiLA0y+LoFhlL1876ylHLb03olCRSa7ErgiCW3HhC0WCnBUSs6l5kYN0QLM+hIOxZSnOgCIIgdpxQQBG/1ZEzmJDaXQs9PtZhtWll7O+J/qH2RGM1nq8ZguwVCwrJljx8yghap0ltyGPzW6PHaM7gqAmI0PLTRWxARRAEUdSFEgQYQcSIQaScmRxfZJ2INYQWztrDyKm1WZouCB2LjCAggmh2uB+Ij17m+lCn1fDgzUCWEYQxCWK12BG52CftQo0nSwAR8lkbSxGbAL43UyJ17CcP3dURKV3sszcojItIsUSZWIJoawJQnvxCks1m8x5llNh5AO8enlpCcDqJqPNIkJEJELuOprAznqIf9N1SIglarz5KajaA3Jtd7IZyTL6kCIKoC4J3OQEF0Y4cgou+WKg1fIKao19CcEcJgWloM0CLj2V8SQSxXBwc6xxURA6FQJHrZcq5SIJMGUegqjBFFOilnIEIDsUQBFFUausQdME+jiar1eou9YU7iRq73e4r6rvoE7tscPRA1JIyR2gzwBIRtDLFEEQWjijuNHVIDxZi1zsEvPU+0ylDJirE//hZbaqDSK9kAaUU6EVFkG73yV6HpIwiU/XJnsA/rd//OPb8yClCWf5d66iIjUZLSoteGpmiIggij7akWSkK9mNG6B+GkmceZJz8/fHx8UG+AyIkkP93fn7+TtKmffr0v24uyGl4qHNY6gBQBqBqtITqYx1XFEEQdYg1h82RsliNNIOcqjDv1xfb3n1OaZbL29R1mwbPogiCKvKsYXqqTdrVEA/7OZ93dA24FY9VFead3SB3vrRpXWqMSyRIdB1iTbP6VKtPe4a1QooDuNTGPTL/fUf8m/GYiM0l+HWmx9a1Xq+vZ8TlzU8XRxBUJyRFqD72TcGSjHpiLS/p0+A5+E/d5c3PlhYrymZWcqbEvjiCoOqQmChyDPC+k7Qfk7VoRjhBKgcEFedFnX/0eBdHEFkYol2YuuBDdNwQTq+YI0l3qOXo8exDCoCzDS09ivRA1ND5SnVQ2WOAih4pUmKEwxZJkK4rEl2sp44iMn/uwzuN0VOlVP0aUNFD5iute1V0itV3k+SOkcYhpsamqkXGv1VSbZI6aqCjR2oix/hQsREElWYJODkNMCCK3E6W/7L9yfkIMLIGs3TOcoFaLEGQxXoHpvrwK9YIGaPK/XK5/J7rBBr53EnOzctiz6IJAo4iD9vt9lruO1mAipFB7rajdSTpTB3TFWmTHDVijN2e1xc7QWp58ANNpjtGsTqinWpOxwLbo9jivPgivV9gAufKvuuKLi04VoJImD3t1W52xUeQzrkgF+G6gv1Beu7WZzK0APfjkXn7HGcGyPV3mMwSzbX2q4Ig6IuCuVq/Y2OgosgcZwaoA8EBJsVHjypqkB5Q5KFUH0lyF+2IDwVJtypn9EtxW6D0ztVwY6siggzSFMjpej9fKe+y0ob9XONTkEPWPkcEtGJWFUESFOzFvjrUalCUXCpyzFE/xWBSFUFEUdRN3yFojCR/ulAqcmjenxzj1EjZ6giSIorMVZMgDYmaKyE5ZIlVFObV1iApWqaMJK8IpNp8ul+Y5fwpduOoLoIMSAI7GxmTZP9yhm/7QvIuFtya5BMcAg7Vr+LMY8pe1RIkVT3ircOVOKWq+rPZ4gtVEySHcVuOJuizpQMRs7q6o/oaZKhA4rz5+afkYGu73d7NcRM4RZqWemMZrLlqclQfQVIX7S3WJpmihkBXZVE+3pCqTrGGyiQuMl9+aq7vf8RGEsFnv/abTG+HrLYob5YgolguknRpl9wKLrrblfGJxiY6Vs11saYUykmSIVH2z1V/L6VGmYkYAkczkaP3rWZSrDnSrXGNIg4inzSQNCznjVtZx5wvi+hwaI4czRTpJUSS8RqG3wBJ8TIFIcTFxYV8fk2+HzLra1Brur6ureWajCCD7laS03YtyH0qhvhmYdeF+iv3K4UO6dwyOZqOIL1BM7Y1T/IG4UwpbjOfXPjhAU20co/p33QEGUQSxCemI/zoP9GWCFLbcx1W47kgSF/Enp2d/ch0DjBpjxYIkuu1plaHRsu5Icio0zNLUdsAQZrsVLlPscYAoN+SErpr1UoQb1FjaE9XEWSo+ByHaZUSxF3UIEEGCOQ8ea+QIM13qU5Ff7cRZCKayLdIkn6uoBaC8CUWr95BggyYkvo5idIJ4rnWOBRJSJAJZFIRpVSCkBiHEy0S5EgSiiZKaQQhMU5VIJU/k35aPcwIFFFKIQiJEe4XjCDhWMkDWTvF8DdDSyFITe/GjcEbIUuCKFAkQRRgNTKUBFEYkgRRgNXIUBJEYUgSRAFWI0NJEIUhSRAFWI0MJUEUhiRBFGA1MpQEURiSBFGA1chQEkRhSBJEAVYjQ0kQhSFJEAVYjQwlQRSGJEEUYDUylARRGJIEUYDVyFASRGFIEkQBViNDSRCFIUkQBViNDCVBFIYkQRRgNTKUBFEYkgRRgNXIUBJEYUgSRAFWI0NJEIUhSRAFWI0MJUEUhiRBFGA1MpQEURiSBFGA1chQEkRhSBJEAVYjQ0kQhSFJEAVYjQwlQRSGlI/XKIa/GSrfL4z9HJt8EOjp6elTzDo2m81tjLwnWRLEk7WpqxoBEkQNGQU8IUCCeLI2dVUjQIKoIaOAJwRIEE/Wpq5qBEgQNWQU8IQACeLJ2tRVjQAJooaMAp4QIEE8WZu6qhEgQdSQUcATAiSIJ2tTVzUCJIgaMgp4QoAE8WRt6qpGgARRQ0YBTwiQIJ6sTV3VCJAgasgo4AkBEsSTtamrGgESRA0ZBTwhQIJ4sjZ1VSNAgqgho4AnBEgQT9amrmoESBA1ZBTwhAAJ4sna1FWNAAmihowCnhAgQTxZm7qqESBB1JBRwBMCJIgna1NXNQIkiBoyCnhCgATxZG3qqkaABFFDRgFPCJAgnqxNXdUIkCBqyCjgCQESxJO1qasagf8D1HlpUKnflrkAAAAASUVORK5CYII=;" vertex="1" parent="mJ4tMJjO0BwHOsw6vvGb-15">
          <mxGeometry x="5" width="50" height="50" as="geometry" />
        </mxCell>
        <mxCell id="mJ4tMJjO0BwHOsw6vvGb-17" value="统一存储管理" style="text;html=1;align=center;verticalAlign=middle;whiteSpace=wrap;rounded=0;" vertex="1" parent="mJ4tMJjO0BwHOsw6vvGb-15">
          <mxGeometry x="-10" y="40" width="80" height="30" as="geometry" />
        </mxCell>
        <mxCell id="mJ4tMJjO0BwHOsw6vvGb-18" value="" style="group" vertex="1" connectable="0" parent="1">
          <mxGeometry x="730" y="230" width="60" height="70" as="geometry" />
        </mxCell>
        <mxCell id="mJ4tMJjO0BwHOsw6vvGb-19" value="" style="shape=image;verticalLabelPosition=bottom;labelBackgroundColor=default;verticalAlign=top;aspect=fixed;imageAspect=0;image=data:image/png,iVBORw0KGgoAAAANSUhEUgAAAMgAAADICAYAAACtWK6eAAAAAXNSR0IArs4c6QAADvtJREFUeF7tXV1y2zgTlGT7HF/ylio7Z0h8krVPkvVJkpwkzhkiVeVtvfewrE/jJW2GpiTMoAECmE7VPmSDgTA905gfgORywT9EgAgcRGBJbIgAETiMAAlC7yACRxAgQegeRIAEoQ8QARsCjCA23CjlBAESxImhqaYNARLEhhulnCBAgjgxNNW0IUCC2HCjlBMESBAnhqaaNgRIEBtulHKCAAnixNBU04YACWLDjVJOECBBnBiaatoQIEFsuFHKCQIkiBNDU00bAiSIDTdKOUGABHFiaKppQ4AEseFGKScIkCBODE01bQiQIDbcKOUEARLEiaGppg0BEsSGG6WcIECCODE01bQhQILYcKOUEwRIECeGppo2BEgQG26UcoIACeLE0FTThgAJYsONUk4QIEGcGJpq2hAgQWy4UcoJAiSIE0NTTRsCJIgNN5PU1dXV591u95dJuBNarVY/f/369S1mDsqGI0CChGMVPfLy8vKf5XL5Lmai3W73sNls3sfMQdlwBEiQcKyiRn78+PFmt9t9jZrkVfh6vV7fg+biNEcQIEEyucfV1dWPxWLxGfRz9+v1+ho0F6chQeb3gaurqx1qFZJmLZfLW0YRFKKH52EESY/x4vLy8utyubxB/tRut/u22WxukXNyrrcIkCAJveLDhw/vzs/PpWv1N/pnJIrsU7b75XL5nZEEje7rfCQIGNueFHsHvontWIUurUu5vj0+Pn7//fu3EId/QAiQICAgU0aL0CX2RFmv13ehMhx3HAESBOAh+wL8S4o0yro0EsWKHGsQHHKLxaKLGnK2gWrfQtcnRNlut9dMu+ywMoIYsQMf/BlXcVqM0eQ0RsdGkCAG/MCHfoYVmET+Zm2ix40EUWJWKTmeteQ9LqWxF4sFCTLCTFKn3pmG5wul1xuhph/XJaKXyF5cXDzXUbwp/CeSJMgAD7mOvlgs5M7Uy58uh3/Yn1y/y3WuEers1nG9TgeaC7wIOQCWBPmTIMgLhVb/nVWOaRgjyKQD5uxK9Z0lWcj+0uG/8vfHx8cHacf2Kc/5+flLxHp6evoku33GCMaCvvMSRpAOCORt2ykGDkjx03p3anBaL6lgsrMXnp+8WpAEWSyS3LbtIU51NT1104C3hf+zoHuCTBXmiCJAiLFare5Sd4W61FBuDKeIKO4LdhIE+6Rfz62sOXyqi5Is2J1HkESF+Wy7bopoKE8upo6CiIidag7XEQTxlpHUtYbW8BJNzs7OfqA6Xt6jiFuCIB+DLc2JEpDE7eO9LgnS5ez/aHfnI+NnS6sOrQmpY6pOHBD/ZFO5JAj4wmFx5Oi9BVxjuXzVkDuCgAvZrN0qyzYJftqx2M3Agk2IjDuCAAvzKnZU5IFiabVWiIPHjnFHEGDaUc1uCoya1egcS4xe3h1BRHFA2lFF9Bg6CaDuKj6dRJFiOI9LggDSjup20sgoUt2GgCKLS4IIeBFnBdU6izGKVKsvgiRuCSLgGQv2JKlGF9WeH3+1Xoc/5RCW1HL/ogfXPuJaeQtB9q/3fI96z1QXxb5Mvdi6f/fudru9Q/7e/l3BwQekHrtW403GNUEsD0mhdtTQ3Rz9XitDmlVdvXUqkmr+3S1BLO1e1ENElt9G3ao13EEjQTSMamXsXE5qvSOFegw2NHIN7Jyk5qrFjxhBFJZC7OKGHfxlhYgIpm33In5TAXFxQ90SxLCTivGi0w1LY6D3GkTRTILoOEiCKPBCdLAsjYHhEmObBNoUjxFE4SAtDbVEkFjntNQ9E5hHRTESROfFjCAKvGIJok1vDiwtiiDdXbTgL+4ygigcpKWhlggSm2Jpd+8pvHOvgQRpyesVulgIMneR3l1DiYr62ihGgiicqqWhxnogOr2Zu82r1ZsEacnrFbpod9Ju6uhDs5g0Kza9Eh1IEIWTeH71qMVRUbup1knFpIhDSplHG8FQOuvcspzRUflsOWrYVqK9uIc4qOtXGloDoS8rag8qUcS0WWh+Ke8EefNFqQCTRNch/W/079Tdk+Bm/CbE/rr7ZrO5DVhT0BBL5EKkdUGLK3RQEQQRw3UfiTHDZHEk41OF0XXIlJKlPjBlJYikcmZjLhaL1Wr1s4R3AhdBkNB04xjgFkNqUyz5fWSaFeNAFlltemVtK1vqu7E+pdQ+zRBEe0ZhIcfAiLA0y+LoFhlL1876ylHLb03olCRSa7ErgiCW3HhC0WCnBUSs6l5kYN0QLM+hIOxZSnOgCIIgdpxQQBG/1ZEzmJDaXQs9PtZhtWll7O+J/qH2RGM1nq8ZguwVCwrJljx8yghap0ltyGPzW6PHaM7gqAmI0PLTRWxARRAEUdSFEgQYQcSIQaScmRxfZJ2INYQWztrDyKm1WZouCB2LjCAggmh2uB+Ij17m+lCn1fDgzUCWEYQxCWK12BG52CftQo0nSwAR8lkbSxGbAL43UyJ17CcP3dURKV3sszcojItIsUSZWIJoawJQnvxCks1m8x5llNh5AO8enlpCcDqJqPNIkJEJELuOprAznqIf9N1SIglarz5KajaA3Jtd7IZyTL6kCIKoC4J3OQEF0Y4cgou+WKg1fIKao19CcEcJgWloM0CLj2V8SQSxXBwc6xxURA6FQJHrZcq5SIJMGUegqjBFFOilnIEIDsUQBFFUausQdME+jiar1eou9YU7iRq73e4r6rvoE7tscPRA1JIyR2gzwBIRtDLFEEQWjijuNHVIDxZi1zsEvPU+0ylDJirE//hZbaqDSK9kAaUU6EVFkG73yV6HpIwiU/XJnsA/rd//OPb8yClCWf5d66iIjUZLSoteGpmiIggij7akWSkK9mNG6B+GkmceZJz8/fHx8UG+AyIkkP93fn7+TtKmffr0v24uyGl4qHNY6gBQBqBqtITqYx1XFEEQdYg1h82RsliNNIOcqjDv1xfb3n1OaZbL29R1mwbPogiCKvKsYXqqTdrVEA/7OZ93dA24FY9VFead3SB3vrRpXWqMSyRIdB1iTbP6VKtPe4a1QooDuNTGPTL/fUf8m/GYiM0l+HWmx9a1Xq+vZ8TlzU8XRxBUJyRFqD72TcGSjHpiLS/p0+A5+E/d5c3PlhYrymZWcqbEvjiCoOqQmChyDPC+k7Qfk7VoRjhBKgcEFedFnX/0eBdHEFkYol2YuuBDdNwQTq+YI0l3qOXo8exDCoCzDS09ivRA1ND5SnVQ2WOAih4pUmKEwxZJkK4rEl2sp44iMn/uwzuN0VOlVP0aUNFD5iute1V0itV3k+SOkcYhpsamqkXGv1VSbZI6aqCjR2oix/hQsREElWYJODkNMCCK3E6W/7L9yfkIMLIGs3TOcoFaLEGQxXoHpvrwK9YIGaPK/XK5/J7rBBr53EnOzctiz6IJAo4iD9vt9lruO1mAipFB7rajdSTpTB3TFWmTHDVijN2e1xc7QWp58ANNpjtGsTqinWpOxwLbo9jivPgivV9gAufKvuuKLi04VoJImD3t1W52xUeQzrkgF+G6gv1Beu7WZzK0APfjkXn7HGcGyPV3mMwSzbX2q4Ig6IuCuVq/Y2OgosgcZwaoA8EBJsVHjypqkB5Q5KFUH0lyF+2IDwVJtypn9EtxW6D0ztVwY6siggzSFMjpej9fKe+y0ob9XONTkEPWPkcEtGJWFUESFOzFvjrUalCUXCpyzFE/xWBSFUFEUdRN3yFojCR/ulAqcmjenxzj1EjZ6giSIorMVZMgDYmaKyE5ZIlVFObV1iApWqaMJK8IpNp8ul+Y5fwpduOoLoIMSAI7GxmTZP9yhm/7QvIuFtya5BMcAg7Vr+LMY8pe1RIkVT3ircOVOKWq+rPZ4gtVEySHcVuOJuizpQMRs7q6o/oaZKhA4rz5+afkYGu73d7NcRM4RZqWemMZrLlqclQfQVIX7S3WJpmihkBXZVE+3pCqTrGGyiQuMl9+aq7vf8RGEsFnv/abTG+HrLYob5YgolguknRpl9wKLrrblfGJxiY6Vs11saYUykmSIVH2z1V/L6VGmYkYAkczkaP3rWZSrDnSrXGNIg4inzSQNCznjVtZx5wvi+hwaI4czRTpJUSS8RqG3wBJ8TIFIcTFxYV8fk2+HzLra1Brur6ureWajCCD7laS03YtyH0qhvhmYdeF+iv3K4UO6dwyOZqOIL1BM7Y1T/IG4UwpbjOfXPjhAU20co/p33QEGUQSxCemI/zoP9GWCFLbcx1W47kgSF/Enp2d/ch0DjBpjxYIkuu1plaHRsu5Icio0zNLUdsAQZrsVLlPscYAoN+SErpr1UoQb1FjaE9XEWSo+ByHaZUSxF3UIEEGCOQ8ea+QIM13qU5Ff7cRZCKayLdIkn6uoBaC8CUWr95BggyYkvo5idIJ4rnWOBRJSJAJZFIRpVSCkBiHEy0S5EgSiiZKaQQhMU5VIJU/k35aPcwIFFFKIQiJEe4XjCDhWMkDWTvF8DdDSyFITe/GjcEbIUuCKFAkQRRgNTKUBFEYkgRRgNXIUBJEYUgSRAFWI0NJEIUhSRAFWI0MJUEUhiRBFGA1MpQEURiSBFGA1chQEkRhSBJEAVYjQ0kQhSFJEAVYjQwlQRSGJEEUYDUylARRGJIEUYDVyFASRGFIEkQBViNDSRCFIUkQBViNDCVBFIYkQRRgNTKUBFEYkgRRgNXIUBJEYUgSRAFWI0NJEIUhSRAFWI0MJUEUhiRBFGA1MpQEURiSBFGA1chQEkRhSBJEAVYjQ0kQhSFJEAVYjQwlQRSGlI/XKIa/GSrfL4z9HJt8EOjp6elTzDo2m81tjLwnWRLEk7WpqxoBEkQNGQU8IUCCeLI2dVUjQIKoIaOAJwRIEE/Wpq5qBEgQNWQU8IQACeLJ2tRVjQAJooaMAp4QIEE8WZu6qhEgQdSQUcATAiSIJ2tTVzUCJIgaMgp4QoAE8WRt6qpGgARRQ0YBTwiQIJ6sTV3VCJAgasgo4AkBEsSTtamrGgESRA0ZBTwhQIJ4sjZ1VSNAgqgho4AnBEgQT9amrmoESBA1ZBTwhAAJ4sna1FWNAAmihowCnhAgQTxZm7qqESBB1JBRwBMCJIgna1NXNQIkiBoyCnhCgATxZG3qqkaABFFDRgFPCJAgnqxNXdUIkCBqyCjgCQESxJO1qasagf8D1HlpUKnflrkAAAAASUVORK5CYII=;" vertex="1" parent="mJ4tMJjO0BwHOsw6vvGb-18">
          <mxGeometry x="5" width="50" height="50" as="geometry" />
        </mxCell>
        <mxCell id="mJ4tMJjO0BwHOsw6vvGb-20" value="日志管理" style="text;html=1;align=center;verticalAlign=middle;whiteSpace=wrap;rounded=0;" vertex="1" parent="mJ4tMJjO0BwHOsw6vvGb-18">
          <mxGeometry y="40" width="60" height="30" as="geometry" />
        </mxCell>
        <mxCell id="mJ4tMJjO0BwHOsw6vvGb-23" value="" style="endArrow=classic;html=1;rounded=0;" edge="1" parent="1" source="mJ4tMJjO0BwHOsw6vvGb-13">
          <mxGeometry width="50" height="50" relative="1" as="geometry">
            <mxPoint x="545" y="308" as="sourcePoint" />
            <mxPoint x="545" y="328" as="targetPoint" />
          </mxGeometry>
        </mxCell>
        <mxCell id="mJ4tMJjO0BwHOsw6vvGb-24" style="edgeStyle=orthogonalEdgeStyle;rounded=0;orthogonalLoop=1;jettySize=auto;html=1;exitX=0.5;exitY=1;exitDx=0;exitDy=0;" edge="1" parent="1" source="mJ4tMJjO0BwHOsw6vvGb-17">
          <mxGeometry relative="1" as="geometry">
            <mxPoint x="648" y="308" as="sourcePoint" />
            <mxPoint x="648" y="328" as="targetPoint" />
          </mxGeometry>
        </mxCell>
        <mxCell id="mJ4tMJjO0BwHOsw6vvGb-26" style="edgeStyle=orthogonalEdgeStyle;rounded=0;orthogonalLoop=1;jettySize=auto;html=1;exitX=0.5;exitY=1;exitDx=0;exitDy=0;" edge="1" parent="1">
          <mxGeometry relative="1" as="geometry">
            <mxPoint x="759.5" y="302" as="sourcePoint" />
            <mxPoint x="759.5" y="330" as="targetPoint" />
          </mxGeometry>
        </mxCell>
        <mxCell id="mJ4tMJjO0BwHOsw6vvGb-29" value="前台服务系统" style="rounded=1;whiteSpace=wrap;html=1;" vertex="1" parent="1">
          <mxGeometry x="515" y="360" width="75" height="30" as="geometry" />
        </mxCell>
        <mxCell id="mJ4tMJjO0BwHOsw6vvGb-30" value="详细Up主分析" style="rounded=1;whiteSpace=wrap;html=1;" vertex="1" parent="1">
          <mxGeometry x="610" y="415" width="90" height="30" as="geometry" />
        </mxCell>
        <mxCell id="mJ4tMJjO0BwHOsw6vvGb-31" value="Up主一览" style="rounded=1;whiteSpace=wrap;html=1;" vertex="1" parent="1">
          <mxGeometry x="510" y="415" width="75" height="30" as="geometry" />
        </mxCell>
        <mxCell id="mJ4tMJjO0BwHOsw6vvGb-32" value="用户登录" style="rounded=1;whiteSpace=wrap;html=1;" vertex="1" parent="1">
          <mxGeometry x="627.5" y="360" width="75" height="30" as="geometry" />
        </mxCell>
        <mxCell id="mJ4tMJjO0BwHOsw6vvGb-33" value="详细视频分析" style="rounded=1;whiteSpace=wrap;html=1;" vertex="1" parent="1">
          <mxGeometry x="618" y="480" width="90" height="30" as="geometry" />
        </mxCell>
        <mxCell id="mJ4tMJjO0BwHOsw6vvGb-34" value="视频一览" style="rounded=1;whiteSpace=wrap;html=1;" vertex="1" parent="1">
          <mxGeometry x="500" y="480" width="90" height="30" as="geometry" />
        </mxCell>
        <mxCell id="mJ4tMJjO0BwHOsw6vvGb-35" value="LLM捕捉热点" style="rounded=1;whiteSpace=wrap;html=1;" vertex="1" parent="1">
          <mxGeometry x="730" y="415" width="90" height="30" as="geometry" />
        </mxCell>
        <mxCell id="mJ4tMJjO0BwHOsw6vvGb-36" value="词云生成" style="rounded=1;whiteSpace=wrap;html=1;" vertex="1" parent="1">
          <mxGeometry x="730" y="480" width="90" height="30" as="geometry" />
        </mxCell>
        <mxCell id="mJ4tMJjO0BwHOsw6vvGb-37" value="" style="shape=image;verticalLabelPosition=bottom;labelBackgroundColor=default;verticalAlign=top;aspect=fixed;imageAspect=0;image=data:image/png,iVBORw0KGgoAAAANSUhEUgAAAMgAAADICAYAAACtWK6eAAAAAXNSR0IArs4c6QAAFgZJREFUeF7tXWty3LgRbox8icRJ7fgkK51EoyN4U1ZVfkn65Sq5sj6CxiexfJKdrcTJJSwiAh9jDAmgGyCAAcieP/sQiceH/tBPgAL4xwgwAlYEBGPDCDACdgSYICwdjIADASYIiwcjwARhGWAEwhBgDRKGG7+1EgSYICtZaJ5mGAJMkDDc+K2VIMAEWclC8zTDEGCChOHGb60EASbIShaapxmGABMkDDd+ayUIMEFWstA8zTAEmCBhuPFbK0GACbKSheZphiHABAnDjd9aCQJMkJUsNE8zDAEmSBhu/NZKEGCCrGSheZphCDBBwnDjt1aCABNkJQvN0wxDgAkShhu/tRIEmCArWWieZhgCTJAw3PitlSDABFnJQvM0wxBggoThxm+tBAEmyEoWmqcZhgATJAw3fmslCDBBVrLQPM0wBJggYbjV99bu43YDb64B5FYNXgB8e9nf7uubSN4RM0Hy4n2W3i52jzsJ8GTo/AAg9g38+AL7fx7OMrjCO2WCFL5As4e3+3S5AflVa2evtIf6bwniFwC56/4m9s3+w8Ps/hbWABNkYQs6no7YPX4VAJfD/29AXMH+w/PxuZ+m1z0AdBqFiXKEhwmydoL089/sPt296hRFEvVjovRAMEEWTpCx/zHRINr8Db7KQbZkmf5ER6JDo8w1XSMtDE8myMIWdDKd1oS6UD5IG716/ee+2d/eWKfdm1wS5NEs05/VzbU1aBsmyNIJAgAjzXBo9rfvgqd96rMcm5EAz3J/exXcbqEvMkEKXZjYw9rsHlWYd4hY3c92xHcftwIunkYa5dDAy9WSQsZMkNiSWGp7mqkVbbc3a5NFOfhMkFIFOsW4OpL8QfJFfPo3EkXM11I+Y0j0LBMkEbClNnsazo0sxF1SUplyQ0Bgnr9TAIhMkAIWIesQTrXIoQFxYw3Tds/eNfDyQPYrplGzqknCBMkqnWV05qNF+md3Xs731OSqliRMkDJkNvsoNJKgwrvZPQ5+y7MzhzKaxTg7Pyu8nB2hrkMmyJmAP3u3minkyq634zwWPPr7LFFzMGcAjQlyBtBL6bLXDFtK2FcJeuj5kZEmcWfySwGnHwcTpLAFyTmcgSCqODG1+aOTRADchJItJz5sYuVGu7D+9FL45ELbR8T6bH41GXfWIIUJbdbhaIepKGbW7LGdlqck11qzx8tOegwIK25jnBOZU8RIheGkT3+nn9pNrOdYg8RCstJ2dDMLjWZFmqPuj+TqM3ToTJBQ5Bbynh6GzSasp9n2ok0tJshCBD14GprJk9xR1wd5cplEuaYWEyRYspbzomZmZY0uaWdUsvbrs3JMEB+0FvrsJNud69CTpr2yRNEC1o8JEgDa4l45jWap6WXb0Ut32Jkgi5P2sAmdHslt28hTEnKOULMHREwQD7AW/ehUi3Qk8TkLEgjQqYlXlsPOBAlc1CW+NioqHKaYPgw7Dvvm8oEIi8gEIYC0mkcsV/o0+9vkcjIKFOQx7wgLm3zihDHwIyUhMDW18girz1HgjHgxQTKCXUVXo9vgsyUPz0VMZFGYIFVIbb5BTu/yfXlHvrBh5jBHN9Gn930I42WCEEBa0yPaIaouH5KjwrcHeELODL4PtrZMEAyhFf39bLkQDWN9DNmKJx1rzARZEQGwqU4JcoacRGHlJ0wQTGpW9PeReaWuvDnL2fGStAgTZEUEwKY6JkgD+Rz0k7EVpEWYIJjUrOjvm92j1KebI0Fog/e0BN9xPWri9WGCJAa4muZNFb0ZI1hjnHyuR02JMRMkJbo1tT0iyNnPZxRiZjFBahLilGMtjSAAoJl8WfMxOsxMkJRCV1nbIx9kUoM15/rRECj0oMG5ciJMkJCVW+g7OkEmJlavYXKGfksI9zJBFirsIdOyEeRsnzE4140rGnhMkBBJWug7tmJBw0GqPCXw6urP3eNX9SVdNrEWKnQ1TctaTTsqge8udciTmxjIea6kJWuQmiQ48VjHmuK4a9vOq+9vbxIP6fjxHiZIcqS5AxSBkabQzRpduygHXgBsc5XCq77l/vYKHX+CB1iDJAC12ianptTR1zg1v8S9BHkpQTxYv5AbEYQ2vAzikKOv8bCZIBEXsvqmHOUm4wveLkBuG4DrbDv77tMlE6R6Cat/AhNHvb+C54Qg6qRfr22yRZf6G1cEyD9zfr6NNUj9Mh11BraQrvb/O7Or1zY5a7b0Cl8AeG5AfEmtVZggUcVrAY0ZQroC4EGC+AVA3utXkubOUYzPrHdopz31yARZgExHnYI5pHvs4qTU5AxapNNcb657sg7jOgCIfbP/8BAVC/5GYWw4l9Ge5QrSdnLjfMSwq2fzRQaIdx+3F3BxqQIFKtOeSpuwBlmGTMedhe0KUhBXJpu/J9QuV15kPNnJ900iHvRigsQVrWW11u/SalIv8PLsukCuJ4lKHqbPrptQTnQBNhNkWSJ91tl0JFFm2I8vuW5jPJnwiCQq0iUAvs0JCzNBzipSC+y81zqYxkk2c7N5GFx9zARJtlIrb3j3cXsWLdLDPg40hOZrmCArl+PFTb/XYH3eZttHtw6hGXgmyOIkZCUTUhpK+xlyI8ccyZyzK0yQlcjT0qY5qhnDphecSGSCYNDy34tEwJMgag6HkPotJkiRy8+DwhAw12Vhb/Ueicel3EwQGqb8VIEIuEpikOGSL6JjghS48DwkDwRGeY+2mFJl/bHf/p/K5EJ/TBAUIn6gCgR+ZtFhTtRqPFcmSBWrz4MkIXBSqi/uY5S8MEFIyPNDtSAwvgVy7jkRJkgtK8/jpCOw+7gVcPE0nBNpy0zg5Sak9IUJQoedn6wNgc7kupMAW3WPV4g2YYLUtug83iAENNOLHOJVHTFBguDml6pEoI90SYAD9T4vJkiVKw3wv8/KZAD40ZoOAG+6Ugr4y/vun+f4qTHp4znnWKzzP+ZNACiXPDBBziFJAX0q4WsvKJDi8tXp7C8pMDZ0EGqHFOLQQPPl7+8BT5oFjEe98p9/wW4jxDU2HhDiWTbNt7/9A/aBXUV/rbvO1H2M2MvE6j+HhQ606W/iQx/0eGC4FMD8SprrXjyGl/TRjhibO5ByF9jRQQloTLJ8/wx3IIW6I8v/J8R+A83DHO3y/Xfxh6tjKeUDiYyEQ100DYLclaQPNsUnusbf7x6BE3yc0n91872hiCGleEJ2Z98BHTZCXoUKZ8QxHUDI/dv34H2PVbthSJQgNySCENCLTpDQo41um/HCumNE748AWo5H/vu7+BqZHO2wN0K+CyHIvz/D5UaKr1HnLuS9L0kKJcinyw1IMjgxP3ZCqNj0CttFXeBEjaUihxru298kbVPU5paEHEP7niQpkiC+tfcxzSzKwZhG3Ta+kJ9yfIUQT0mmI8T+7fvG696qpOQIIEmRBCHs4uP1jOMXEH2fmBoriWB6NBqgPfSw7sk57Um3CXZrj6m5HiX7RkshyOQO1yAgpzeNG5tZCkF8duvXOqPnv/4mJ58lUwL00sClKfwqpfRyXgPIGrTM7UtE7VYoQR6VyvcKM8a4zJiquWL0Fb6y8d78/nnzRA3nUpztIXcyhGQp7wyz8QjlthEp2cCfR4tps/mVOg8NvUMj5A2WtymSIBQ/YCom87/b0Ode3GZDVy9zM+d6yXgiPq+lPr6PztfX2R6IQo0YUTWZSyONyUlChmACFkkQqqDqIMwOvxL9j1Y7L4cgkiJIjZBX2E5Lacf2DIWo1DF4Bh0Ob3+T71xjL5UgpIUbT2yOb0A1r7o+52urOQIV413qrk0VzNAxUQTa15ehtDmMF5vfoggyR3D9CAJxomahUhXhPZIQER3ZOcPBHHNbcADb9clVAYiZVR5BPEydMUhzzCykvGTc1SoIgu2uc4hxdM5/F05rwVd7DO1SBLs3l43ROZ92Qsdowg9PsLkJomLwTqcyyMwy92nty0pEQpg4xH8hkNebsBQNkpoglDGEZOKP5KNF6Zx+CIVomQniKjNRFZ1tlamVJGECqD7E0n5RVfu1fdkqSK3lJoQAg7cw4wTx94koPkhqgqDO+UwTjyLcasFdJKS0kZUg7jKTVmgVOaw5khAzyxRWVrmODUiVjzGS0VZustnhORyvUhWCyRmSl6EQJMT+9zG7vicyr/QxYD6Oeta1ERRHELezLO7VdxckgLN2yNfMMuzQrYZwaQNrHwQzy2t8pPbMH7vEHFmsjBsTHh8yjJ+lCJ5PotE2FkoCcjEE6a55FAes0tfLzDLs0IMWciUsXUKOmVk+46MUbnpppF6SKALaP0quW/IhTGr/YxgLRVOCI5JFwSmrieUyUQZTAhPAV7OIbOebNVZn07sJYt+1CWbWzPGdiGJw+T3F/BhIgiXUfMihnqXs7HMcdJ8oVFUEoezaBAEkFy+a/Y+Xd+rSL1c/Li0Qc9fH8jMhPtcgPJRdXBN8NOvsQxKsDiyW/0PRAMshSH8OgySAlo/QnyyiJbw7fKDeTUR35AjTclQ/BN8M/CNYo91VHUwj1WOpj8KQz18jbMG0VyyCtNoKCQa4KnspBMttYqnjrmjkKEro0+wAH80fhIhOMwkruKT6IVg7IREsXXY9tcjwKqkS1sURjCDUcnSK1poTTi6RILbM6omtje3QFNPD5X8o4F0EwdrHTCOqn4TNM8RB14Vq1sUIM24MmSO0FFLoz2B9ubRVzQRBz4xgZoxJ+E4EzhFixQgClPAs4eguoimDHfQxSZruggSqqaW/HnRjCCa0rEFM24AjKTYWSIof4ixeRPyPdniIkGO7N7r7QxcMsO6ISJIQJanHVtvvlKEkUT15+SdMEPPiuGuxPAiimscE0CVAmHlFIggi4JiDjfohaBY93EE3LU/QoaNxQ0Sza47j7MH79lGcjPbrgMoysTxNGowgChybmUUjSHudvfWOLMyEwzQQ5ofgWjIuQWZEt8Yyi5pdGEEiR7GsgZ924LUkCn2jRtgO3c7dcvrPZNtPTCZkB6dEkDASu8w0zNHHTDzfnXbilwBcB1/5qS63dtxmiO3qOQmCHuUt5WZFRCCmYVWCI2w0syj+R+uDuDUIaiJ1ZqAzmOAuWTFVGR/FOIqDjpFottll2Z0zEyT4zElRJhZWqGi6Ph7boU1mFsm86iXHFUWiEAQzk1xtuHIgMR10jCTq73OIYioGxAiinP5Y5S2YOVdNsWJI5hpLpJnMLFt5O+w/TK7ud4dZaT4AQmJrwjFG3xTh93kmkCiTgkc0URh4balpLhhBXFXDRWkQt7CbhRGz03vAfgqhxWxynO9wOXikokOMxMa+I/g/PoLv82wQSUaHnygEiXFgiyLg1RyYCiEIIVLUrv3R1jf7LUEnBKlmDkZiox8yMwfjI/Chz1IqcrW2T0ymXARBS2mQU4sUgmWrxXKbInZzhuaHdOXpPv6HWlxX21SCYCQ2+SEIqbI46BTieJFEc9hJ7808cqvGjxEEE+7SCGKNNoQ6s9oit+aQsbzEUfmLkI8sqL5+SEjAgiLQKZ4hCXsXcj/eIEI6yBTBUcfK6rFTi4sgCGbC9EJxUJ9rMyX+3LmIR2eSiZqLQMO9o7qs0MNaKQiAtelR8Hg0s4gEcZ4Xx8al/o5Fy7BDWeUQZE7OgZAPGZx1w4UPTi2AmW9oNn1YRcynGJWtOCJYZK1FEaBYz1B8itYX7K8xpQheOzbC/bmuOTgjWAQTjjJOzEzzwdheizWHIIS6rEGLTCtW8xx8wvyZExPSjQUpcuazKDGexWz9Yx+aUGK7+7BmofkQzLyiRMkKIoj7s2tYUg4zYWxCgJWLoCFaysnFvnNkjEfBr8n/GHCl+iH6buurdXyJjBEQM69Uf8UQZE7GWU0Ee98CLmquYATBiKv3i4zxOBZXgpDq8/gK09znsd16aF8nCNUPUVl136/looQlmFdFEQRztFFBpPshR1mghGljEgQzs1p/RpmL9gpilNC+gq4EWzbNt7mfMaZqAz1qRNmdTaYZNkcK8bDo1dAHZYxZfBCMIJgphAmfGVS8VAQjiO+N8lh0agPwq/3KU3y8mPCM/645sQcQ4rmB5ovvt0AoAtn2a9i1qcQa/BFMk5DGQtQeVWkQIkHQY7i6gFDajE0Q10agtKTr1khyxMyDJZYoT0sWpVnkBg4uwqCmjDYW005Ldu5/tnMk8huAg/oGu9rlfwBsN7C5pnyKjao9CiMIVhaOX6/p6YeQzJXYBHFn1cMuzPbgw+RRrJBPe6E7GizEM0DT/bsUzovER50Zq3M9cihzpvnzXc+wMcXEChmYLYJmDfNigkjZ7bGSDn0iFP+jlYfd49fXDPClAwTvsKsjt+L4vEN880rNyYMgIXJwfMdlpwdokeCxUCJXeuPLIgg9H0L+jFoKghDanAhAquhVDoJgpwOzaREP32NYgGIIgmescRNLTYqaD6Ha8wRhDtEgXr6SCnMOtz0Gb52WFzMQhHTwKcKtKig0lMTguJGSCOI8Fkkysej5ELLAYQShmmo68J6+UtKv6vo42agETh/wuoExsSbxzqVQnfQAXKw1ZlYfBLtKlEqQXotgX8kl7/oFEIRM5pCFGoSA/NFLYieYWWVrJugwFnFMIQnHMjQIev+TOvBEM7F6grivefH4jHMKgvgEE3zzLHRZmT7Z5hCIoVJHP+iVP5QxJiSK1/iWShD3TSKEKz+HRTw3QVI55y4hHYRTSHH5akK6InhDM8e8ydyMvNEHALj2GAuFf+QqYYUFrUG/p1T+xvSG2cTqNMidq4sGXh6c13TqL3dlJ9e29tTBKep0+sSe+8u6Hu21/dLLYsimIHU+vs8NSTjRdIIiNptfhzyIbOBPLJHo2x9GXJUQVGMRG/gFYGNeFykVqSmCHeSXxJzTuC38M9Apey+lbSJBqJG2UqZVyjg6Dbi5o2TVQ/ySlPNkguw+bgVcPCHJR7UGyZ3zlAtdQtvUCF3MYsO5814FQRxmGVX1ewUl5i7Kkt+n5Fd8s+sp8VoJQdzn2HGA05SV4P0u8wlXRKwk7dH6eMtcgtNZYVUBCAZsWiUSkr4UXkU4jw58SdqDCUJYeHbMCSDNeER34EvTHkwQdGHZtEIhivSAcuDfvoeHSM1Fa4ZNLDuUZ895RFtlbigYASaIGTomR7BILetFJshoPdHLKJa1/jwbBIG1EIRy3uPQgLgxfZOEpWi9CKyCIP2n26yfVGatsV4CYDNfB0EGFHafLi9AtjH3FxAHgB8HcsElhiT/fZEIrIsgi1xCnlRKBJggKdHltqtHgAlS/RLyBFIiwARJiS63XT0CTJDql5AnkBIBJkhKdLnt6hFgglS/hDyBlAgwQVKiy21XjwATpPol5AmkRIAJkhJdbrt6BJgg1S8hTyAlAkyQlOhy29UjwASpfgl5AikRYIKkRJfbrh4BJkj1S8gTSIkAEyQlutx29QgwQapfQp5ASgSYICnR5barR4AJUv0S8gRSIsAESYkut109AkyQ6peQJ5ASASZISnS57eoRYIJUv4Q8gZQIMEFSosttV48AE6T6JeQJpESACZISXW67egSYINUvIU8gJQJMkJToctvVI/B/JVHdmwgp+fkAAAAASUVORK5CYII=;" vertex="1" parent="1">
          <mxGeometry x="870" y="412.5" width="80" height="80" as="geometry" />
        </mxCell>
        <mxCell id="mJ4tMJjO0BwHOsw6vvGb-40" value="统一存入" style="text;html=1;align=center;verticalAlign=middle;whiteSpace=wrap;rounded=0;" vertex="1" parent="1">
          <mxGeometry x="850" y="395" width="60" height="30" as="geometry" />
        </mxCell>
      </root>
    </mxGraphModel>
  </diagram>
</mxfile>
